<?xml version="1.0" standalone="no"?>
<!DOCTYPE svg PUBLIC "-//W3C//DTD SVG 20010904//EN"
 "http://www.w3.org/TR/2001/REC-SVG-20010904/DTD/svg10.dtd">
<svg version="1.0" xmlns="http://www.w3.org/2000/svg"
 width="100.000000pt" height="39.000000pt" viewBox="0 0 100.000000 39.000000"
 preserveAspectRatio="xMidYMid meet">

<g transform="translate(0.000000,39.000000) scale(0.100000,-0.100000)"
fill="#000000" stroke="none">
<path d="M157 366 c-4 -9 0 -12 13 -9 15 4 29 -15 74 -106 31 -61 57 -111 59
-111 8 0 -10 142 -19 148 -6 4 -21 26 -33 50 -19 37 -26 42 -55 42 -20 0 -36
-6 -39 -14z"/>
<path d="M496 358 c-14 -20 -14 -25 4 -55 12 -21 15 -35 8 -39 -6 -4 -8 -24
-4 -50 l6 -44 -55 0 -55 0 4 38 c14 105 15 151 6 157 -16 10 -85 -4 -107 -21
-16 -13 -15 -13 10 -4 56 20 57 19 50 -90 l-6 -100 81 0 c72 0 82 -2 82 -17 0
-40 -10 -42 -162 -36 -123 5 -148 9 -151 22 -4 14 -5 14 -6 -1 -3 -39 23 -47
162 -48 206 -3 231 -2 244 16 10 14 12 14 21 -1 8 -15 22 -17 84 -14 61 4 82
9 116 32 51 33 52 33 52 2 0 -28 39 -50 71 -40 21 7 34 81 32 188 0 57 -4 72
-23 92 -20 21 -33 25 -84 26 -143 1 -200 -1 -233 -10 -27 -8 -42 -7 -64 4 -39
21 -65 19 -83 -7z m69 -18 c20 -22 14 -50 -11 -50 -24 0 -54 29 -54 52 0 25
42 24 65 -2z m251 9 c19 -15 18 -63 -2 -79 -13 -12 -11 -15 15 -26 85 -36 -20
-145 -143 -148 l-50 -1 -12 85 c-7 47 -13 101 -13 122 -1 34 1 37 36 45 61 13
154 15 169 2z m110 -14 c29 -29 27 -49 -3 -53 -28 -4 -68 45 -52 64 16 20 26
17 55 -11z m-56 -65 c0 -5 -2 -10 -4 -10 -3 0 -8 5 -11 10 -3 6 -1 10 4 10 6
0 11 -4 11 -10z m-285 -47 c-15 -119 -16 -123 -34 -123 -14 0 -20 14 -30 69
-6 39 -11 74 -11 80 0 8 19 14 68 20 10 1 12 -11 7 -46z m364 -5 c-1 -72 -13
-123 -30 -126 -13 -2 -19 11 -28 60 -7 35 -14 71 -17 80 -3 11 2 18 18 21 56
11 58 9 57 -35z"/>
<path d="M708 299 c-24 -13 -23 -39 1 -39 22 0 45 25 36 40 -8 12 -15 12 -37
-1z"/>
<path d="M693 204 c-7 -3 -13 -21 -13 -39 0 -28 3 -32 19 -28 26 7 63 42 58
56 -4 13 -44 19 -64 11z"/>
<path d="M88 253 c-10 -2 -18 -8 -18 -13 0 -12 33 -5 38 8 2 7 2 11 0 11 -1
-1 -11 -3 -20 -6z"/>
<path d="M167 246 c-4 -10 -5 -21 -2 -24 9 -9 17 6 13 25 -3 17 -4 17 -11 -1z"/>
<path d="M67 189 c6 -23 9 -24 16 -5 3 8 0 17 -7 19 -10 4 -12 -1 -9 -14z"/>
<path d="M151 183 c-17 -4 -30 -21 -53 -71 -17 -37 -32 -69 -34 -71 -2 -2 -15
1 -29 7 -38 17 -30 -1 9 -22 19 -10 42 -16 51 -12 9 3 30 37 47 76 28 64 48
88 48 58 0 -6 3 -9 6 -5 7 7 -5 47 -14 46 -4 -1 -18 -4 -31 -6z"/>
</g>
</svg>
