<?xml version="1.0" standalone="no"?>
<!DOCTYPE svg PUBLIC "-//W3C//DTD SVG 20010904//EN"
 "http://www.w3.org/TR/2001/REC-SVG-20010904/DTD/svg10.dtd">
<svg version="1.0" xmlns="http://www.w3.org/2000/svg"
 width="100.000000pt" height="62.000000pt" viewBox="0 0 100.000000 62.000000"
 preserveAspectRatio="xMidYMid meet">

<g transform="translate(0.000000,62.000000) scale(0.100000,-0.100000)"
fill="#000000" stroke="none">
<path d="M797 402 c-3 -4 -8 -50 -12 -102 -9 -135 -11 -143 -35 -130 -16 9
-20 21 -20 61 0 49 -1 50 -27 47 -34 -4 -63 -44 -70 -95 -7 -52 9 -63 49 -33
28 20 31 21 48 5 11 -10 30 -15 47 -13 28 3 28 4 30 78 1 41 7 97 13 123 5 26
10 52 10 57 0 12 -27 13 -33 2z m-97 -171 c0 -25 -39 -74 -40 -49 0 22 21 68
32 68 4 0 8 -9 8 -19z"/>
<path d="M475 335 c-44 -13 -81 -24 -81 -25 -1 0 -4 9 -7 20 -7 29 -24 25 -30
-8 -4 -19 -17 -33 -41 -45 -20 -9 -36 -23 -36 -32 0 -18 31 -20 48 -3 17 17
18 11 14 -69 -3 -54 -7 -73 -17 -73 -19 0 -34 30 -33 67 2 57 -23 69 -61 29
-24 -25 -40 -78 -33 -108 4 -22 30 -23 53 -2 13 12 22 13 38 5 11 -6 33 -11
49 -11 l30 0 4 95 c2 52 6 96 9 99 15 16 197 57 271 63 48 3 88 10 88 14 0 5
-42 9 -92 8 -68 0 -114 -7 -173 -24z m-205 -150 c0 -17 -31 -75 -39 -75 -15 0
-14 6 5 46 14 29 34 46 34 29z"/>
<path d="M865 351 c-3 -6 -4 -15 -1 -19 2 -4 -4 -39 -15 -77 -23 -83 -23 -95
-5 -95 9 0 16 16 20 45 4 24 10 46 14 48 4 2 22 -4 40 -13 l33 -16 -20 -26
c-25 -31 -26 -38 -7 -38 17 0 78 79 70 92 -3 4 -21 8 -40 8 -44 0 -44 17 1 36
37 15 47 34 18 34 -10 -1 -29 -7 -43 -15 -35 -20 -39 -19 -37 11 2 28 -16 43
-28 25z"/>
<path d="M197 333 c-3 -5 -8 -28 -12 -53 -7 -48 -20 -98 -37 -143 -15 -39 -28
-17 -28 48 0 74 -9 97 -34 93 -17 -3 -25 -21 -53 -133 -31 -121 -32 -158 -5
-141 6 3 13 21 17 39 15 76 29 133 36 141 4 4 10 -14 14 -40 3 -27 7 -56 8
-64 1 -8 12 -16 24 -18 18 -3 25 6 42 53 22 58 61 196 61 215 0 12 -27 14 -33
3z"/>
<path d="M601 266 c-13 -14 -29 -22 -36 -20 -23 9 -26 -13 -8 -70 22 -71 49
-79 38 -11 -6 43 -4 48 29 81 20 20 36 38 36 40 0 14 -40 0 -59 -20z"/>
<path d="M490 223 c0 -30 -33 -93 -49 -93 -6 0 -11 19 -13 42 -2 23 -9 43 -15
46 -16 5 -18 -80 -3 -109 14 -25 44 -24 61 2 13 19 16 19 44 5 37 -19 48 -11
16 13 -20 15 -23 25 -20 66 3 32 0 50 -8 52 -9 3 -13 -5 -13 -24z"/>
</g>
</svg>
