<?xml version="1.0" standalone="no"?>
<!DOCTYPE svg PUBLIC "-//W3C//DTD SVG 20010904//EN"
 "http://www.w3.org/TR/2001/REC-SVG-20010904/DTD/svg10.dtd">
<svg version="1.0" xmlns="http://www.w3.org/2000/svg"
 width="100.000000pt" height="54.000000pt" viewBox="0 0 100.000000 54.000000"
 preserveAspectRatio="xMidYMid meet">

<g transform="translate(0.000000,54.000000) scale(0.100000,-0.100000)"
fill="#000000" stroke="none">
<path d="M739 500 c-19 -5 -78 -29 -129 -54 -104 -51 -133 -55 -274 -34 -139
20 -217 -6 -264 -87 -29 -51 -27 -140 5 -183 54 -73 110 -85 258 -57 85 17
145 13 183 -12 22 -13 26 -12 61 20 45 41 77 52 190 66 46 6 98 19 115 29 66
38 97 152 61 221 -20 39 -69 78 -113 91 -42 11 -43 11 -93 0z m133 -45 c67
-45 87 -152 40 -215 -31 -41 -74 -60 -163 -70 -83 -11 -174 -45 -199 -75 -10
-13 -16 -12 -43 1 -31 16 -87 16 -262 -2 -52 -5 -64 -3 -95 18 -93 63 -92 191
4 262 23 17 42 21 109 21 45 -1 118 -5 162 -9 l81 -9 109 52 c133 61 196 68
257 26z"/>
<path d="M820 355 c0 -16 -6 -25 -15 -25 -8 0 -15 9 -15 20 0 11 -7 20 -15 20
-12 0 -15 -13 -15 -60 0 -47 3 -60 15 -60 10 0 15 10 15 30 0 20 5 30 15 30 9
0 15 -10 15 -26 0 -16 5 -24 13 -22 7 3 13 27 15 61 2 46 0 57 -13 57 -9 0
-15 -9 -15 -25z"/>
<path d="M667 342 c-21 -23 -22 -75 -3 -92 24 -19 60 -8 75 24 12 26 12 33 0
55 -18 32 -50 38 -72 13z m45 -57 c-6 -14 -16 -25 -22 -25 -11 0 -13 39 -4 65
6 15 8 15 22 1 13 -12 13 -20 4 -41z"/>
<path d="M591 339 c-52 -10 -63 -18 -34 -25 17 -5 23 -15 25 -48 2 -28 8 -41
18 -41 11 0 14 11 11 46 -2 40 1 47 18 52 19 5 31 28 14 26 -5 -1 -28 -5 -52
-10z"/>
<path d="M505 322 c-14 -10 -46 -103 -39 -114 3 -5 13 -8 22 -6 13 3 16 12 14
42 -4 45 13 42 23 -4 6 -30 19 -38 29 -21 6 9 -22 98 -33 105 -4 3 -11 2 -16
-2z"/>
<path d="M158 309 c-27 -10 -38 -29 -18 -29 6 0 10 -30 10 -69 0 -63 2 -69 19
-64 14 3 18 13 17 35 -1 25 5 34 29 48 24 13 30 23 30 51 0 31 -3 34 -30 36
-16 1 -42 -3 -57 -8z m59 -43 c-4 -9 -14 -16 -22 -16 -9 0 -14 3 -12 8 2 4 7
16 11 26 5 14 10 16 18 8 6 -6 8 -18 5 -26z"/>
<path d="M387 303 c-11 -19 -30 -113 -24 -119 3 -4 13 -4 21 -1 11 4 13 15 9
41 -4 24 -2 36 6 36 6 0 11 -4 11 -9 0 -5 5 -22 10 -37 8 -19 14 -24 21 -17
15 15 -17 113 -36 113 -8 0 -16 -3 -18 -7z"/>
<path d="M266 268 c-30 -42 -13 -98 29 -98 45 0 72 71 39 104 -22 22 -50 20
-68 -6z m54 -32 c0 -25 -22 -51 -33 -39 -11 10 -8 48 5 61 15 15 28 6 28 -22z"/>
</g>
</svg>
