<?xml version="1.0" standalone="no"?>
<!DOCTYPE svg PUBLIC "-//W3C//DTD SVG 20010904//EN"
 "http://www.w3.org/TR/2001/REC-SVG-20010904/DTD/svg10.dtd">
<svg version="1.0" xmlns="http://www.w3.org/2000/svg"
 width="100.000000pt" height="47.000000pt" viewBox="0 0 100.000000 47.000000"
 preserveAspectRatio="xMidYMid meet">

<g transform="translate(0.000000,47.000000) scale(0.100000,-0.100000)"
fill="#000000" stroke="none">
<path d="M174 414 c7 -25 31 -53 48 -54 4 0 14 -7 22 -16 15 -14 16 -14 16 3
0 26 -10 38 -54 68 l-38 26 6 -27z"/>
<path d="M683 373 c-7 -2 -13 -13 -13 -24 0 -10 -4 -19 -10 -19 -5 0 -10 -7
-10 -15 0 -8 5 -15 10 -15 6 0 10 -26 10 -57 0 -80 24 -127 67 -131 44 -4 78
14 62 34 -10 13 -14 12 -31 -3 -15 -13 -23 -15 -36 -7 -13 9 -18 29 -20 88
l-3 77 33 -3 c27 -2 34 1 36 17 2 17 -3 20 -30 20 -28 0 -33 3 -31 23 3 21 -8
26 -34 15z"/>
<path d="M20 315 c-39 -41 -19 -75 75 -130 23 -14 24 -48 2 -53 -10 -2 -27 4
-38 14 -16 14 -21 15 -35 3 -14 -12 -14 -14 2 -26 10 -7 37 -13 61 -13 35 0
46 5 59 25 24 36 7 68 -55 102 -50 28 -66 46 -55 64 8 14 47 11 71 -6 19 -13
22 -13 28 2 17 45 -77 59 -115 18z"/>
<path d="M333 330 c-13 -5 -32 -24 -43 -42 -41 -68 -12 -161 54 -174 63 -11
127 18 109 50 -8 15 -11 15 -28 -4 -25 -27 -80 -27 -95 0 -15 28 -9 34 65 65
37 16 65 34 65 42 0 8 -13 28 -29 44 -30 30 -58 35 -98 19z m68 -36 c15 -18 4
-30 -53 -60 -27 -14 -28 -13 -28 9 0 53 52 86 81 51z"/>
<path d="M513 325 c-26 -18 -31 -62 -10 -87 6 -9 31 -28 55 -42 28 -18 42 -33
40 -44 -5 -24 -36 -27 -59 -6 -16 14 -21 15 -35 3 -14 -12 -14 -14 2 -26 27
-20 98 -17 117 5 35 39 12 78 -72 124 -38 21 -43 58 -8 58 12 0 32 -7 44 -15
20 -14 22 -14 28 6 9 26 5 30 -42 36 -26 3 -45 -1 -60 -12z"/>
<path d="M862 333 c-15 -3 -22 -10 -19 -21 2 -9 10 -15 18 -13 44 12 61 12 74
1 23 -19 18 -27 -23 -34 -46 -7 -81 -41 -88 -87 -10 -59 39 -84 109 -54 13 5
17 2 17 -15 0 -18 4 -20 23 -14 12 3 23 7 24 8 1 1 -1 42 -4 91 -6 80 -9 93
-34 117 -26 27 -45 31 -97 21z m88 -137 c0 -46 -10 -56 -55 -56 -23 0 -35 17
-35 48 0 26 31 52 62 52 26 0 28 -2 28 -44z"/>
<path d="M195 228 c-7 -99 -3 -117 28 -118 4 0 7 47 7 104 0 80 -3 105 -14
109 -11 4 -15 -15 -21 -95z"/>
<path d="M185 71 c10 -16 158 -60 229 -67 79 -8 202 9 293 41 37 13 66 24 63
24 -3 0 -41 -6 -85 -14 -132 -24 -328 -15 -483 20 -15 4 -21 2 -17 -4z"/>
</g>
</svg>
